#!OML:ASF E:\Mandelcareful walks\Project 1\Capture day 1\Session 1\Subject1.ASF
:FULLY-SPECIFIED
:DEGREES
288
root 6.47973 15.498 0.874284 -168.667 -63.4883 172.155
lowerback 18.6372 -0.974974 -1.21005
upperback 7.64043 -2.21111 -1.31103
thorax -2.23984 -1.38181 -0.244782
lowerneck -22.2051 15.6607 16.5116
upperneck 23.409 20.5773 -14.1204
head 15.212 8.61789 -3.89761
rclavicle 1.1281e-014 2.127e-014
rhumerus 51.3045 36.3426 -47.941
rradius 114.56
rwrist -60.8381
rhand 2.97432 -21.0089
rfingers 7.12502
rthumb 28.436 -48.8683
lclavicle 1.1281e-014 2.127e-014
lhumerus -16.4615 -13.196 82.6414
lradius 52.3421
lwrist 19.6259
lhand -24.395 -12.7404
lfingers 7.12502
lthumb 2.09592 17.229
rfemur -34.5768 0.131385 2.83561
rtibia 50.1201
rfoot -17.6062 1.03319
rtoes -9.09463
lfemur -24.6151 24.1191 -11.1996
ltibia 56.5515
lfoot -25.741 9.88837
ltoes -13.244
289
root 6.49317 15.501 0.850011 -168.204 -64.0891 171.732
lowerback 18.5486 -0.786895 -0.910973
upperback 7.74282 -1.92245 -1.47374
thorax -2.09982 -1.23383 -0.647604
lowerneck -21.7945 16.0263 16.9403
upperneck 22.9582 21.1348 -14.6014
head 15.1679 8.86716 -4.0099
rclavicle 1.47598e-014 1.49089e-015
rhumerus 52.0016 36.825 -47.7578
rradius 114.574
rwrist -62.0693
rhand 1.20929 -21.7026
rfingers 7.12502
rthumb 26.7481 -49.8318
lclavicle 1.47598e-014 1.49089e-015
lhumerus -16.194 -13.9255 82.4372
lradius 52.3809
lwrist 20.1153
lhand -24.6787 -12.6465
lfingers 7.12502
lthumb 1.82192 17.3255
rfemur -34.4551 -0.186262 2.79155
rtibia 50.185
rfoot -17.682 0.726066
rtoes -9.26323
lfemur -24.8208 23.7668 -11.2983
ltibia 56.3756
lfoot -25.4756 9.71708
ltoes -13.6815
290
root 6.4995 15.5055 0.826126 -167.633 -64.7925 171.13
lowerback 18.4482 -0.685472 -0.755235
upperback 7.94685 -1.77642 -1.54629
thorax -1.83566 -1.16426 -0.847398
lowerneck -21.6961 16.405 16.9218
upperneck 22.472 21.7709 -14.9426
head 15.1077 9.11351 -3.96125
rclavicle 2.39039e-014 1.70458e-014
rhumerus 53.1347 37.2059 -47.2997
rradius 114.266
rwrist -62.754
rhand 1.18316 -21.8243
rfingers 7.12502
rthumb 26.7231 -49.9573
lclavicle 2.39039e-014 1.70458e-014
lhumerus -15.8055 -14.2457 82.2909
lradius 52.4415
lwrist 20.3884
lhand -24.6306 -12.5222
lfingers 7.12502
lthumb 1.86829 17.4494
rfemur -34.1817 -0.642741 2.67741
rtibia 50.2654
rfoot -17.8606 0.497797
rtoes -9.62393
lfemur -24.9278 23.3937 -11.4377
ltibia 56.2056
lfoot -25.309 9.43709
ltoes -13.9549
291
root 6.51241 15.5072 0.80292 -167.397 -65.641 170.918
lowerback 18.3717 -0.604548 -0.383325
upperback 8.0995 -1.61396 -1.57409
thorax -1.64063 -1.07833 -1.12327
lowerneck -21.7675 16.6658 16.9053
upperneck 22.3011 22.1798 -15.0773
head 15.1446 9.26949 -3.88905
rclavicle -4.11733e-014 2.08724e-014
rhumerus 54.0171 37.4239 -46.9935
rradius 113.904
rwrist -63.0018
rhand 2.34375 -21.7956
rfingers 7.12502
rthumb 27.8333 -49.7541
lclavicle -4.11733e-014 2.08724e-014
lhumerus -15.4331 -14.5294 82.2459
lradius 52.3825
lwrist 20.4629
lhand -24.6988 -12.7167
lfingers 7.12502
lthumb 1.80249 17.2555
rfemur -33.9185 -1.06334 2.77489
rtibia 50.3608
rfoot -18.1165 0.174378
rtoes -9.66656
lfemur -25.1391 22.9469 -11.3708
ltibia 56.0477
lfoot -25.0799 9.09868
ltoes -14.1448
292
root 6.53052 15.5092 0.780943 -167.107 -66.4851 170.724
lowerback 19.0254 -0.540678 -0.286135
upperback 7.56838 -1.47476 -1.5106
thorax -2.54235 -0.987547 -1.1186
lowerneck -21.0892 16.8223 17.4506
upperneck 22.4785 22.4259 -15.2846
head 15.2485 9.4231 -4.01842
rclavicle -5.32557e-014 1.61513e-016
rhumerus 54.0824 38.5031 -47.083
rradius 113.775
rwrist -63.1297
rhand 2.83949 -21.7101
rfingers 7.12502
rthumb 28.3072 -49.5909
lclavicle -5.32557e-014 1.61513e-016
lhumerus -16.2674 -14.5532 82.593
lradius 52.3709
lwrist 20.1449
lhand -24.8233 -13.0574
lfingers 7.12502
lthumb 1.68223 16.9157
rfemur -33.7786 -1.46129 2.885
rtibia 50.4464
rfoot -18.2442 -0.201069
rtoes -9.43793
lfemur -25.4837 22.4315 -11.3219
ltibia 55.8898
lfoot -24.7778 8.7512
ltoes -13.82
293
root 6.54258 15.5141 0.757678 -166.434 -67.1417 170.116
lowerback 19.0472 -0.490863 -0.280993
upperback 7.43431 -1.38868 -1.4609
thorax -2.6941 -0.93745 -1.08477
lowerneck -20.4276 16.9165 17.3427
upperneck 22.099 22.7405 -15.5715
head 15.0452 9.56607 -4.0607
rclavicle -6.61456e-014 1.01877e-014
rhumerus 54.9508 39.4739 -46.609
rradius 113.723
rwrist -63.6931
rhand 2.73503 -21.4232
rfingers 7.12502
rthumb 28.2073 -49.3205
lclavicle -6.61456e-014 1.01877e-014
lhumerus -16.4428 -14.2387 82.845
lradius 52.2171
lwrist 19.7358
lhand -24.8029 -13.0556
lfingers 7.12502
lthumb 1.7019 16.9173
rfemur -33.6615 -1.7678 2.79357
rtibia 50.5127
rfoot -18.2875 -0.561667
rtoes -9.70939
lfemur -25.7372 22.011 -11.4674
ltibia 55.7236
lfoot -24.602 8.43426
ltoes -13.4493
